<?xml version="1.0" standalone="no"?>
<!DOCTYPE svg PUBLIC "-//W3C//DTD SVG 20010904//EN"
 "http://www.w3.org/TR/2001/REC-SVG-20010904/DTD/svg10.dtd">
<svg version="1.0" xmlns="http://www.w3.org/2000/svg"
 width="700.000000pt" height="700.000000pt" viewBox="0 0 700.000000 700.000000"
 preserveAspectRatio="xMidYMid meet">
<metadata>
Created by potrace 1.14, written by Peter Selinger 2001-2017
</metadata>
<g transform="translate(0.000000,700.000000) scale(0.100000,-0.100000)"
fill="#000000" stroke="none">
<path d="M100 6989 c-14 -6 -36 -20 -48 -32 -55 -51 -52 102 -52 -2292 l0
-2216 22 -8 c19 -8 30 -2 68 36 74 74 146 103 268 108 121 5 202 -32 255 -118
76 -121 87 -174 72 -335 -9 -103 2 -134 60 -168 94 -55 248 -64 374 -23 178
59 298 276 327 589 3 30 7 75 9 100 9 96 6 4247 -4 4271 -5 13 -19 35 -31 48
-50 51 -44 51 -692 50 -376 0 -612 -4 -628 -10z"/>
<path d="M2340 6981 c-43 -23 -102 -127 -125 -221 -38 -154 -42 -246 -43
-1024 -1 -652 1 -763 14 -787 38 -74 169 -117 379 -124 77 -3 199 -7 270 -10
512 -18 2189 -26 2689 -12 131 4 390 9 575 12 848 14 839 13 881 99 20 43 20
51 18 1014 -3 963 -3 971 -24 998 -11 15 -33 37 -48 48 l-27 21 -2262 3
c-2192 2 -2263 2 -2297 -17z"/>
<path d="M3465 4593 c-152 -10 -331 -57 -457 -120 -209 -104 -449 -299 -590
-478 -27 -33 -52 -65 -58 -72 -31 -38 -144 -219 -164 -265 -21 -47 -25 -72
-30 -238 -4 -102 -8 -196 -10 -210 -2 -14 -7 -65 -11 -115 -5 -81 -10 -121
-30 -250 -3 -22 -8 -56 -11 -75 -10 -78 -58 -272 -94 -382 -40 -122 -107 -265
-163 -347 -88 -131 -230 -257 -369 -327 -71 -36 -220 -89 -273 -97 -16 -3 -41
-8 -55 -11 -60 -14 -104 -17 -250 -21 -158 -3 -204 1 -349 30 -39 7 -151 46
-209 72 -71 31 -147 80 -202 131 -47 43 -72 50 -115 30 l-25 -11 2 -868 c3
-859 3 -868 24 -895 11 -15 33 -37 48 -48 l27 -21 1936 -3 c1921 -2 1937 -2
1978 18 27 13 49 34 65 62 l23 41 0 2016 c0 1830 -2 2082 -18 2160 -32 162
-110 243 -270 277 -62 14 -252 23 -350 17z"/>
<path d="M5486 4588 c-168 -15 -242 -66 -271 -183 -13 -54 -15 -69 -21 -135
-2 -36 -7 -90 -9 -120 -5 -58 -6 -1071 -1 -2927 l2 -1111 27 -40 c50 -76 11
-73 899 -70 777 3 787 3 814 24 15 11 37 33 48 48 l21 27 3 1791 2 1790 -47
97 c-87 178 -164 285 -302 421 -181 178 -407 305 -641 361 -30 7 -59 13 -65
14 -5 0 -39 4 -75 9 -90 10 -289 13 -384 4z"/>
</g>
</svg>
