<svg width="90" height="90" viewBox="0 0 90 90" fill="none" xmlns="http://www.w3.org/2000/svg">
<path fill-rule="evenodd" clip-rule="evenodd" d="M10.92 69.68C8.96 69.68 7.14 69.365 5.46 68.735C3.78 68.175 2.415 67.335 1.365 66.215C1.0648 65.8948 0 66.1663 0 66.6053V88C0 89.1046 0.89543 90 2 90H50.744C51.8486 90 52.744 89.1046 52.744 88V38.368C52.8293 35.3813 52.4453 33.4187 51.592 32.48C50.7387 31.456 49.1173 30.944 46.728 30.944H45.064C42.1627 30.944 39.304 31.8827 36.488 33.76C33.672 35.552 31.2827 37.984 29.32 41.056C28.8862 41.7161 28.4899 42.3909 28.1311 43.0802C27.9923 43.347 27.923 43.6457 27.9185 43.9464C27.7832 52.9978 26.4571 59.5107 23.94 63.485C21.28 67.615 16.94 69.68 10.92 69.68ZM27.93 25.7095C27.93 25.9672 27.9693 26.2298 28.1132 26.4436C28.8118 27.4812 30.6221 28 33.544 28C40.456 28.256 49.1173 28.384 59.528 28.384C64.2213 28.384 69.4693 28.2987 75.272 28.128L84.232 28C85.9364 28 87.3595 27.9218 88.5012 27.7655C89.3952 27.6431 90 26.8471 90 25.9447V2C90 0.895431 89.1046 0 88 0H30.9501C30.3834 0 29.8295 0.231461 29.5123 0.701089C29.0465 1.39068 28.694 2.19365 28.455 3.11C28.105 4.65 27.93 6.4 27.93 8.36V25.7095ZM90 43.0899C90 42.8265 89.9491 42.5652 89.8432 42.324C89.6169 41.8088 89.3679 41.3008 89.096 40.8C87.56 37.8133 85.384 35.424 82.568 33.632C79.8373 31.84 76.8507 30.944 73.608 30.944H71.944C70.2373 30.944 69 31.1573 68.232 31.584C67.5493 32.0107 67.1227 32.736 66.952 33.76C66.7813 34.6987 66.6533 36.32 66.568 38.624L66.6751 88.0043C66.6775 89.1072 67.5722 90 68.6751 90H88C89.1046 90 90 89.1046 90 88V43.0899ZM2 0C0.895431 0 0 0.895431 0 2V58.3625C0 58.6676 0.670759 58.8039 0.84 58.55C1.61 57.43 2.765 56.835 4.305 56.765C6.055 56.625 7.245 57.115 7.875 58.235C8.575 59.285 8.925 60.335 8.925 61.385C8.925 61.665 8.89 62.05 8.82 62.54C8.80851 62.609 8.79607 62.677 8.78269 62.7441C8.66041 63.357 8.66747 64.0434 9.14339 64.4486C9.51004 64.7607 9.96224 64.9995 10.5 65.165C11.41 65.375 12.11 65.445 12.6 65.375C14.7 65.305 16.24 64.36 17.22 62.54C18.27 60.72 18.795 57.675 18.795 53.405V8.045V3.31999V2C18.795 0.895431 17.8996 0 16.795 0H2Z" fill="#CF520C"/>
</svg>
